<svg width="32" height="42" viewBox="0 0 32 42" fill="none" xmlns="http://www.w3.org/2000/svg">
<path d="M0.893702 22.5472L27.977 41.2972C28.2896 41.5135 28.6553 41.6401 29.0347 41.6634C29.4141 41.6867 29.7926 41.6058 30.1293 41.4294C30.4659 41.253 30.7479 40.9879 30.9447 40.6628C31.1415 40.3376 31.2457 39.9648 31.2458 39.5847V2.08471C31.246 1.70446 31.1422 1.33138 30.9456 1.00593C30.7489 0.680468 30.4669 0.415039 30.1302 0.238404C29.7934 0.0617703 29.4148 -0.0193317 29.0352 0.00388848C28.6557 0.0271086 28.2897 0.153765 27.977 0.370131L0.893702 19.1201C0.617783 19.3127 0.392445 19.569 0.236849 19.8674C0.0812529 20.1657 0 20.4972 0 20.8337C0 21.1701 0.0812529 21.5016 0.236849 21.8C0.392445 22.0983 0.617783 22.3546 0.893702 22.5472Z" fill="#3C3939"/>
</svg>
