<svg width="33" height="43" viewBox="0 0 33 43" fill="none" xmlns="http://www.w3.org/2000/svg">
<path d="M31.3617 20.2073L4.38979 1.29743C4.07852 1.07932 3.71352 0.950515 3.3343 0.924967C2.95508 0.899419 2.57609 0.978097 2.23838 1.15249C1.90067 1.32688 1.6171 1.59033 1.41838 1.91432C1.21965 2.23831 1.11335 2.61049 1.11097 2.99057L0.889168 40.4899C0.886667 40.8702 0.988282 41.2438 1.18301 41.5705C1.37773 41.8971 1.65813 42.1642 1.99382 42.3428C2.32952 42.5214 2.70769 42.6047 3.08737 42.5838C3.46705 42.5628 3.83374 42.4383 4.14772 42.2238L31.3415 23.6343C31.6185 23.4434 31.8454 23.1884 32.0027 22.891C32.1601 22.5936 32.2433 22.2626 32.2453 21.9261C32.2473 21.5896 32.168 21.2577 32.0142 20.9584C31.8603 20.6592 31.6365 20.4015 31.3617 20.2073Z" fill="#3C3939"/>
</svg>
