<svg width="50" height="50" viewBox="0 0 50 50" fill="none" xmlns="http://www.w3.org/2000/svg">
<path d="M37.5 23.8462C37.8846 24.4231 38.2692 25 38.4615 25.9615H32.3077C32.3077 25.7692 32.3077 25.3846 32.5 25C32.6923 24.6154 32.6923 24.4231 33.0769 24.0385C33.2692 23.6538 33.6538 23.4615 34.0385 23.2692C34.4231 23.0769 35 22.8846 35.5769 22.8846C36.3462 23.0769 37.1154 23.2692 37.5 23.8462ZM19.8077 22.5C20.1923 22.1154 20.5769 21.5385 20.5769 20.7692C20.5769 20.3846 20.5769 20 20.3846 19.6154C20.1923 19.4231 20 19.0385 19.8077 19.0385C19.6154 18.8462 19.2308 18.8462 18.8462 18.6538H13.8462V23.0769H18.0769C18.6538 23.0769 19.2308 22.8846 19.8077 22.5ZM18.2692 25.7692H13.8462V30.9615H18.2692C18.6538 30.9615 19.0385 30.9615 19.4231 30.7692C19.8077 30.7692 20.1923 30.5769 20.3846 30.3846C20.5769 30.1923 20.9615 30 21.1538 29.6154C21.3462 29.2308 21.3462 28.8462 21.3462 28.4615C21.3462 27.5 21.1538 26.7308 20.5769 26.3462C20 25.9615 19.2308 25.7692 18.2692 25.7692ZM50 9.42308V40.5769C50 45.7692 45.7692 50 40.5769 50H9.42308C4.23077 50 0 45.7692 0 40.5769V9.42308C0 4.23077 4.23077 0 9.42308 0H40.5769C45.7692 0 50 4.23077 50 9.42308ZM31.5385 18.4615H39.2308V16.5385H31.5385V18.4615ZM25.3846 28.8462C25.3846 27.6923 25.1923 26.7308 24.6154 25.7692C24.0385 25 23.2692 24.4231 22.1154 24.0385C22.8846 23.6538 23.6538 23.0769 24.0385 22.5C24.4231 21.9231 24.6154 21.1538 24.6154 20.1923C24.6154 19.2308 24.4231 18.6538 24.2308 17.8846C23.8462 17.3077 23.4615 16.7308 23.0769 16.5385C22.5 16.1538 21.9231 15.9615 21.1538 15.7692C20.1923 15.3846 19.4231 15.3846 18.4615 15.3846H9.61538V34.2308H18.8462C19.6154 34.2308 20.5769 34.0385 21.3462 33.8462C22.1154 33.6538 22.8846 33.2692 23.4615 32.8846C24.0385 32.5 24.6154 31.9231 25 31.1538C25.1923 30.5769 25.3846 29.8077 25.3846 28.8462ZM32.3077 28.2692H42.1154C42.1154 27.1154 42.1154 26.1538 41.9231 25.1923C41.7308 24.2308 41.3462 23.2692 40.7692 22.6923C40.1923 21.9231 39.4231 21.3462 38.6538 20.9615C37.6923 20.5769 36.7308 20.1923 35.5769 20.1923C34.6154 20.1923 33.6538 20.3846 32.6923 20.7692C31.9231 21.1538 31.1538 21.7308 30.3846 22.3077C29.8077 22.8846 29.2308 23.6538 29.0385 24.6154C28.6538 25.5769 28.4615 26.5385 28.4615 27.5C28.4615 28.4615 28.6538 29.6154 29.0385 30.3846C29.4231 31.3462 29.8077 32.1154 30.3846 32.6923C30.9615 33.2692 31.7308 33.8462 32.5 34.2308C33.4615 34.6154 34.4231 34.8077 35.3846 34.8077C36.9231 34.8077 38.2692 34.4231 39.4231 33.6538C40.5769 32.8846 41.3461 31.7308 41.9231 30.1923H38.6538C38.4615 30.5769 38.2692 30.9615 37.6923 31.3462C37.1154 31.7308 36.5385 31.9231 35.7692 31.9231C34.8077 31.9231 33.8462 31.7308 33.2692 31.1538C32.6923 30.3846 32.3077 29.4231 32.3077 28.2692Z" fill="#FCFCFC"/>
</svg>
