<svg width="50" height="50" viewBox="0 0 50 50" fill="none" xmlns="http://www.w3.org/2000/svg">
<path d="M46.875 50H3.125C2.27865 50 1.54622 49.5877 0.927734 48.763C0.309245 47.9384 0 46.9618 0 45.8333V4.16667C0 2.99479 0.301107 2.00738 0.90332 1.20443C1.50553 0.401476 2.24609 0 3.125 0H46.875C47.7539 0 48.4945 0.401476 49.0967 1.20443C49.6989 2.00738 50 2.99479 50 4.16667V45.8333C50 46.9618 49.6989 47.9384 49.0967 48.763C48.4945 49.5877 47.7539 50 46.875 50ZM46.875 6.25C46.875 5.68576 46.7204 5.19748 46.4111 4.78516C46.1019 4.37283 45.7357 4.16667 45.3125 4.16667H42.1875C41.5365 4.16667 41.0238 4.19922 40.6494 4.26432C40.2751 4.32943 39.7868 4.56814 39.1846 4.98047C38.5824 5.39279 37.972 6.01128 37.3535 6.83594L25 23.3073L12.6465 6.83594C12.028 6.01128 11.4176 5.39279 10.8154 4.98047C10.2132 4.56814 9.73307 4.32943 9.375 4.26432C9.01693 4.19922 8.49609 4.16667 7.8125 4.16667H4.6875C4.26432 4.16667 3.89811 4.37283 3.58887 4.78516C3.27962 5.19748 3.125 5.68576 3.125 6.25V43.75C3.125 44.3142 3.27962 44.8025 3.58887 45.2148C3.89811 45.6272 4.26432 45.8333 4.6875 45.8333H7.8125C8.23568 45.8333 8.60189 45.6272 8.91113 45.2148C9.22038 44.8025 9.375 44.3142 9.375 43.75V41.6016L19.6777 27.9297L23.291 32.7474C23.7793 33.3984 24.349 33.5503 25 33.2031C25.651 33.5503 26.2207 33.3984 26.709 32.7474L30.3223 27.9297L40.625 41.6016V43.75C40.625 44.3142 40.7796 44.8025 41.0889 45.2148C41.3981 45.6272 41.7643 45.8333 42.1875 45.8333H45.3125C45.7357 45.8333 46.1019 45.6272 46.4111 45.2148C46.7204 44.8025 46.875 44.3142 46.875 43.75V6.25ZM40.625 35.7422L32.5195 24.9349L40.625 14.1927V35.7422ZM9.375 14.1927L17.4805 24.9349L9.375 35.7422V14.1927Z" fill="#FCFCFC"/>
</svg>
