<svg width="37" height="37" viewBox="0 0 37 37" fill="none" xmlns="http://www.w3.org/2000/svg">
<path d="M36.5488 18.6416C36.5488 20.3018 36.3291 21.9049 35.8896 23.4512C35.4665 24.9811 34.8643 26.4215 34.083 27.7725C33.3018 29.1071 32.3577 30.3278 31.251 31.4346C30.1442 32.5413 28.9235 33.4935 27.5889 34.291C26.2542 35.0723 24.8138 35.6745 23.2676 36.0977C21.7214 36.5371 20.1182 36.7568 18.458 36.7568C16.7979 36.7568 15.1947 36.5371 13.6484 36.0977C12.1185 35.6745 10.6781 35.0723 9.32715 34.291C7.99251 33.4935 6.77181 32.5413 5.66504 31.4346C4.55827 30.3278 3.60612 29.1071 2.80859 27.7725C2.02734 26.4215 1.41699 24.9811 0.977539 23.4512C0.554362 21.9049 0.342773 20.3018 0.342773 18.6416C0.342773 16.9814 0.554362 15.3783 0.977539 13.832C1.41699 12.2858 2.02734 10.8454 2.80859 9.51074C3.60612 8.17611 4.55827 6.9554 5.66504 5.84863C6.77181 4.74186 7.99251 3.79785 9.32715 3.0166C10.6781 2.23535 12.1185 1.63314 13.6484 1.20996C15.1947 0.770508 16.7979 0.550781 18.458 0.550781C20.1182 0.550781 21.7214 0.770508 23.2676 1.20996C24.8138 1.63314 26.2542 2.23535 27.5889 3.0166C28.9235 3.79785 30.1442 4.74186 31.251 5.84863C32.3577 6.9554 33.3018 8.17611 34.083 9.51074C34.8643 10.8454 35.4665 12.2858 35.8896 13.832C36.3291 15.3783 36.5488 16.9814 36.5488 18.6416ZM29.5908 18.6416C29.5908 17.1117 29.2979 15.6712 28.7119 14.3203C28.126 12.9531 27.3285 11.7731 26.3193 10.7803C25.3265 9.77116 24.1465 8.97363 22.7793 8.3877C21.4284 7.80176 19.988 7.50879 18.458 7.50879C16.9118 7.50879 15.4632 7.80176 14.1123 8.3877C12.7614 8.97363 11.5814 9.77116 10.5723 10.7803C9.56315 11.7731 8.76562 12.9531 8.17969 14.3203C7.59375 15.6712 7.30078 17.1117 7.30078 18.6416C7.30078 20.1715 7.59375 21.612 8.17969 22.9629C8.76562 24.2975 9.56315 25.4694 10.5723 26.4785C11.5814 27.4876 12.7614 28.2852 14.1123 28.8711C15.4632 29.457 16.9118 29.75 18.458 29.75C19.988 29.75 21.4284 29.457 22.7793 28.8711C24.1465 28.2852 25.3265 27.4876 26.3193 26.4785C27.3285 25.4694 28.126 24.2975 28.7119 22.9629C29.2979 21.612 29.5908 20.1715 29.5908 18.6416Z" fill="#262525"/>
</svg>
