<svg width="167" height="150" viewBox="0 0 167 150" fill="none" xmlns="http://www.w3.org/2000/svg">
<path d="M91.6667 50H75V75H50V91.6667H75V116.667H91.6667V91.6667H116.667V75H91.6667V50Z" fill="#262525" fill-opacity="0.6"/>
<path d="M150 16.6667H78.45L64.225 2.44167C63.4525 1.66632 62.5342 1.05142 61.523 0.632378C60.5119 0.213334 59.4279 -0.00157874 58.3333 8.73061e-06H16.6667C7.475 8.73061e-06 0 7.47501 0 16.6667V133.333C0 142.525 7.475 150 16.6667 150H150C159.192 150 166.667 142.525 166.667 133.333V33.3333C166.667 24.1417 159.192 16.6667 150 16.6667ZM16.6667 133.333V33.3333H150L150.017 133.333H16.6667Z" fill="#262525" fill-opacity="0.6"/>
</svg>
