<svg width="110" height="110" viewBox="0 0 110 110" fill="none" xmlns="http://www.w3.org/2000/svg">
<circle cx="55" cy="55" r="50" fill="#262525" stroke="white" stroke-width="10" stroke-linecap="square"/>
<path d="M43.4004 33.748C43.4004 34.3665 43.2783 34.9443 43.0342 35.4814C42.8063 36.0186 42.4889 36.4906 42.082 36.8975C41.6751 37.2881 41.195 37.6055 40.6416 37.8496C40.1045 38.0775 39.5267 38.1914 38.9082 38.1914C38.2897 38.1914 37.7038 38.0775 37.1504 37.8496C36.6133 37.6055 36.1413 37.2881 35.7344 36.8975C35.3438 36.4906 35.0264 36.0186 34.7822 35.4814C34.5544 34.9443 34.4404 34.3665 34.4404 33.748C34.4404 33.1458 34.5544 32.5762 34.7822 32.0391C35.0264 31.4857 35.3438 31.0137 35.7344 30.623C36.1413 30.2161 36.6133 29.8988 37.1504 29.6709C37.7038 29.4268 38.2897 29.3047 38.9082 29.3047C39.5267 29.3047 40.1045 29.4268 40.6416 29.6709C41.195 29.8988 41.6751 30.2161 42.082 30.623C42.4889 31.0137 42.8063 31.4857 43.0342 32.0391C43.2783 32.5762 43.4004 33.1458 43.4004 33.748ZM42.2529 67H35.5391V40.8525H42.2529V67Z" fill="#FFF447"/>
<path d="M82.3652 49.6416C82.3652 51.3018 82.1455 52.9049 81.7061 54.4512C81.2829 55.9811 80.6807 57.4215 79.8994 58.7725C79.1182 60.1071 78.1742 61.3278 77.0674 62.4346C75.9606 63.5413 74.7399 64.4935 73.4053 65.291C72.0706 66.0723 70.6302 66.6745 69.084 67.0977C67.5378 67.5371 65.9346 67.7568 64.2744 67.7568C62.6143 67.7568 61.0111 67.5371 59.4648 67.0977C57.9349 66.6745 56.4945 66.0723 55.1436 65.291C53.8089 64.4935 52.5882 63.5413 51.4814 62.4346C50.3747 61.3278 49.4225 60.1071 48.625 58.7725C47.8438 57.4215 47.2334 55.9811 46.7939 54.4512C46.3708 52.9049 46.1592 51.3018 46.1592 49.6416C46.1592 47.9814 46.3708 46.3783 46.7939 44.832C47.2334 43.2858 47.8438 41.8454 48.625 40.5107C49.4225 39.1761 50.3747 37.9554 51.4814 36.8486C52.5882 35.7419 53.8089 34.7979 55.1436 34.0166C56.4945 33.2354 57.9349 32.6331 59.4648 32.21C61.0111 31.7705 62.6143 31.5508 64.2744 31.5508C65.9346 31.5508 67.5378 31.7705 69.084 32.21C70.6302 32.6331 72.0706 33.2354 73.4053 34.0166C74.7399 34.7979 75.9606 35.7419 77.0674 36.8486C78.1742 37.9554 79.1182 39.1761 79.8994 40.5107C80.6807 41.8454 81.2829 43.2858 81.7061 44.832C82.1455 46.3783 82.3652 47.9814 82.3652 49.6416ZM75.4072 49.6416C75.4072 48.1117 75.1143 46.6712 74.5283 45.3203C73.9424 43.9531 73.1449 42.7731 72.1357 41.7803C71.1429 40.7712 69.9629 39.9736 68.5957 39.3877C67.2448 38.8018 65.8044 38.5088 64.2744 38.5088C62.7282 38.5088 61.2796 38.8018 59.9287 39.3877C58.5778 39.9736 57.3978 40.7712 56.3887 41.7803C55.3796 42.7731 54.582 43.9531 53.9961 45.3203C53.4102 46.6712 53.1172 48.1117 53.1172 49.6416C53.1172 51.1715 53.4102 52.612 53.9961 53.9629C54.582 55.2975 55.3796 56.4694 56.3887 57.4785C57.3978 58.4876 58.5778 59.2852 59.9287 59.8711C61.2796 60.457 62.7282 60.75 64.2744 60.75C65.8044 60.75 67.2448 60.457 68.5957 59.8711C69.9629 59.2852 71.1429 58.4876 72.1357 57.4785C73.1449 56.4694 73.9424 55.2975 74.5283 53.9629C75.1143 52.612 75.4072 51.1715 75.4072 49.6416Z" fill="#FCFCFC"/>
<path d="M45.6655 86H43.8501V78.7192H41.1143V76.8975H48.395V78.7192H45.6655V86ZM50.8135 84.3369C50.8812 84.3581 50.9489 84.3729 51.0166 84.3813C51.0843 84.3856 51.152 84.3877 51.2197 84.3877C51.389 84.3877 51.5519 84.3644 51.7085 84.3179C51.8651 84.2713 52.0111 84.2057 52.1465 84.1211C52.2861 84.0322 52.4089 83.9264 52.5146 83.8037C52.6247 83.6768 52.7135 83.5371 52.7812 83.3848L54.0508 84.6606C53.89 84.8892 53.7038 85.0944 53.4922 85.2764C53.2848 85.4583 53.0584 85.6128 52.813 85.7397C52.5718 85.8667 52.3158 85.9619 52.0449 86.0254C51.7783 86.0931 51.5033 86.127 51.2197 86.127C50.7415 86.127 50.2909 86.0381 49.8677 85.8604C49.4487 85.6826 49.0806 85.4351 48.7632 85.1177C48.45 84.8003 48.2025 84.4237 48.0205 83.9878C47.8385 83.5477 47.7476 83.0653 47.7476 82.5405C47.7476 82.0031 47.8385 81.5122 48.0205 81.0679C48.2025 80.6235 48.45 80.2448 48.7632 79.9316C49.0806 79.6185 49.4487 79.3752 49.8677 79.2017C50.2909 79.0282 50.7415 78.9414 51.2197 78.9414C51.5033 78.9414 51.7804 78.9753 52.0513 79.043C52.3221 79.1107 52.5781 79.208 52.8193 79.335C53.0648 79.4619 53.2933 79.6185 53.5049 79.8047C53.7165 79.9867 53.9027 80.1919 54.0635 80.4204L50.8135 84.3369ZM51.7021 80.7632C51.6217 80.7336 51.5413 80.7145 51.4609 80.7061C51.3848 80.6976 51.3044 80.6934 51.2197 80.6934C50.9827 80.6934 50.7585 80.7378 50.5469 80.8267C50.3395 80.9113 50.1576 81.034 50.001 81.1948C49.8486 81.3556 49.728 81.5503 49.6392 81.7788C49.5503 82.0031 49.5059 82.257 49.5059 82.5405C49.5059 82.604 49.508 82.6759 49.5122 82.7563C49.5207 82.8368 49.5312 82.9193 49.5439 83.0039C49.5609 83.0843 49.5799 83.1626 49.6011 83.2388C49.6222 83.3149 49.6497 83.3826 49.6836 83.4419L51.7021 80.7632Z" fill="#FCFCFC"/>
<path d="M60.8809 80.5537L59.6113 81.8296C59.5479 81.6519 59.4611 81.4932 59.3511 81.3535C59.241 81.2096 59.1162 81.089 58.9766 80.9917C58.8411 80.8944 58.693 80.8203 58.5322 80.7695C58.3714 80.7188 58.2064 80.6934 58.0371 80.6934C57.8001 80.6934 57.5758 80.742 57.3643 80.8394C57.1569 80.9367 56.9749 81.0742 56.8184 81.252C56.666 81.4255 56.5454 81.6328 56.4565 81.874C56.3677 82.1152 56.3232 82.3818 56.3232 82.6738C56.3232 82.9108 56.3677 83.133 56.4565 83.3403C56.5454 83.5477 56.666 83.7297 56.8184 83.8862C56.9749 84.0428 57.1569 84.1655 57.3643 84.2544C57.5758 84.3433 57.8001 84.3877 58.0371 84.3877C58.2064 84.3877 58.3693 84.3644 58.5259 84.3179C58.6825 84.2713 58.8285 84.2057 58.9639 84.1211C59.1035 84.0322 59.2262 83.9264 59.332 83.8037C59.4421 83.6768 59.5309 83.5371 59.5986 83.3848L60.8682 84.6606C60.7074 84.8892 60.5212 85.0944 60.3096 85.2764C60.1022 85.4583 59.8758 85.6128 59.6304 85.7397C59.3892 85.8667 59.1331 85.9619 58.8623 86.0254C58.5957 86.0931 58.3206 86.127 58.0371 86.127C57.5589 86.127 57.1082 86.0381 56.6851 85.8604C56.2661 85.6784 55.8979 85.4308 55.5806 85.1177C55.2674 84.8045 55.0199 84.4385 54.8379 84.0195C54.6559 83.6006 54.5649 83.152 54.5649 82.6738C54.5649 82.1533 54.6559 81.6667 54.8379 81.2139C55.0199 80.7611 55.2674 80.3675 55.5806 80.0332C55.8979 79.6947 56.2661 79.4281 56.6851 79.2334C57.1082 79.0387 57.5589 78.9414 58.0371 78.9414C58.3206 78.9414 58.5978 78.9774 58.8687 79.0493C59.1437 79.1213 59.404 79.2271 59.6494 79.3667C59.8991 79.5021 60.1276 79.6693 60.335 79.8682C60.5465 80.0671 60.7285 80.2956 60.8809 80.5537ZM63.4644 86H61.7314V76.4976H63.4644V79.5C63.6717 79.3434 63.8854 79.2334 64.1055 79.1699C64.3255 79.1022 64.5498 79.0684 64.7783 79.0684C65.1973 79.0684 65.5908 79.1488 65.959 79.3096C66.3271 79.4661 66.6466 79.6841 66.9175 79.9634C67.1925 80.2384 67.4084 80.5622 67.5649 80.9346C67.7257 81.3027 67.8062 81.6963 67.8062 82.1152V86H66.0605V82.1152H66.0732C66.0732 81.9375 66.0394 81.7703 65.9717 81.6138C65.904 81.453 65.8109 81.3133 65.6924 81.1948C65.5739 81.0763 65.4364 80.9832 65.2798 80.9155C65.1232 80.8478 64.9561 80.814 64.7783 80.814C64.5964 80.814 64.425 80.8478 64.2642 80.9155C64.1034 80.9832 63.9637 81.0763 63.8452 81.1948C63.7267 81.3133 63.6336 81.453 63.5659 81.6138C63.4982 81.7703 63.4644 81.9375 63.4644 82.1152V86Z" fill="#FFF447"/>
<circle cx="55" cy="55" r="50.5" stroke="#262525" stroke-width="3"/>
</svg>
