<svg width="29" height="29" viewBox="0 0 29 29" fill="none" xmlns="http://www.w3.org/2000/svg">
<path d="M17 10.4753C17 10.8199 16.9319 11.1418 16.7956 11.4411C16.6685 11.7402 16.4913 12.0032 16.2643 12.2299C16.0372 12.4475 15.7693 12.6243 15.4605 12.7603C15.1608 12.8873 14.8384 12.9507 14.4932 12.9507C14.1481 12.9507 13.8211 12.8873 13.5123 12.7603C13.2125 12.6243 12.9491 12.4475 12.7221 12.2299C12.5041 12.0032 12.327 11.7402 12.1908 11.4411C12.0636 11.1418 12 10.8199 12 10.4753C12 10.1399 12.0636 9.82248 12.1908 9.52325C12.327 9.21496 12.5041 8.95201 12.7221 8.7344C12.9491 8.50773 13.2125 8.33092 13.5123 8.20397C13.8211 8.06797 14.1481 8 14.4932 8C14.8384 8 15.1608 8.06797 15.4605 8.20397C15.7693 8.33092 16.0372 8.50773 16.2643 8.7344C16.4913 8.95201 16.6685 9.21496 16.7956 9.52325C16.9319 9.82248 17 10.1399 17 10.4753ZM17 25.059H12V22V16H17V21.125V25.059Z" fill="#262525"/>
<path d="M28.9649 14.4727C28.9649 15.8008 28.7891 17.0834 28.4375 18.3203C28.099 19.5443 27.6172 20.6966 26.9922 21.7774C26.3672 22.8451 25.612 23.8216 24.7266 24.7071C23.8412 25.5925 22.8646 26.3542 21.7969 26.9922C20.7292 27.6172 19.5769 28.099 18.3399 28.4375C17.1029 28.7891 15.8204 28.9649 14.4922 28.9649C13.1641 28.9649 11.8816 28.7891 10.6446 28.4375C9.4206 28.099 8.2683 27.6172 7.1875 26.9922C6.1198 26.3542 5.1433 25.5925 4.2579 24.7071C3.3724 23.8216 2.6107 22.8451 1.9727 21.7774C1.3477 20.6966 0.859396 19.5443 0.507896 18.3203C0.169296 17.0834 0 15.8008 0 14.4727C0 13.1446 0.169296 11.862 0.507896 10.625C0.859396 9.388 1.3477 8.2357 1.9727 7.168C2.6107 6.1003 3.3724 5.1237 4.2579 4.2383C5.1433 3.3529 6.1198 2.5977 7.1875 1.9727C8.2683 1.3477 9.4206 0.865899 10.6446 0.527399C11.8816 0.175799 13.1641 0 14.4922 0C15.8204 0 17.1029 0.175799 18.3399 0.527399C19.5769 0.865899 20.7292 1.3477 21.7969 1.9727C22.8646 2.5977 23.8412 3.3529 24.7266 4.2383C25.612 5.1237 26.3672 6.1003 26.9922 7.168C27.6172 8.2357 28.099 9.388 28.4375 10.625C28.7891 11.862 28.9649 13.1446 28.9649 14.4727ZM23.3985 14.4727C23.3985 13.2487 23.1641 12.0964 22.6954 11.0156C22.2266 9.9219 21.5886 8.9779 20.7813 8.1836C19.987 7.3763 19.043 6.7383 17.9493 6.2696C16.8685 5.8008 15.7162 5.5664 14.4922 5.5664C13.2553 5.5664 12.0964 5.8008 11.0157 6.2696C9.9349 6.7383 8.9909 7.3763 8.1836 8.1836C7.3763 8.9779 6.7383 9.9219 6.2696 11.0156C5.8008 12.0964 5.5665 13.2487 5.5665 14.4727C5.5665 15.6966 5.8008 16.849 6.2696 17.9297C6.7383 18.9974 7.3763 19.9349 8.1836 20.7422C8.9909 21.5495 9.9349 22.1875 11.0157 22.6563C12.0964 23.125 13.2553 23.3594 14.4922 23.3594C15.7162 23.3594 16.8685 23.125 17.9493 22.6563C19.043 22.1875 19.987 21.5495 20.7813 20.7422C21.5886 19.9349 22.2266 18.9974 22.6954 17.9297C23.1641 16.849 23.3985 15.6966 23.3985 14.4727Z" fill="#262525"/>
</svg>
