<svg width="100" height="100" viewBox="0 0 100 100" fill="none" xmlns="http://www.w3.org/2000/svg">
<path d="M50 95C74.8528 95 95 74.8528 95 50C95 25.1472 74.8528 5 50 5C25.1472 5 5 25.1472 5 50C5 74.8528 25.1472 95 50 95Z" fill="#FCFCFC" stroke="#262525" stroke-width="10" stroke-linecap="square" stroke-linejoin="round" stroke-dasharray="20 40 60 80"/>
<path d="M39.3203 30.3984C39.3203 30.8932 39.2227 31.3555 39.0273 31.7852C38.8451 32.2148 38.5911 32.5924 38.2656 32.918C37.9401 33.2305 37.556 33.4844 37.1133 33.6797C36.6836 33.862 36.2214 33.9531 35.7266 33.9531C35.2318 33.9531 34.763 33.862 34.3203 33.6797C33.8906 33.4844 33.513 33.2305 33.1875 32.918C32.875 32.5924 32.6211 32.2148 32.4258 31.7852C32.2435 31.3555 32.1523 30.8932 32.1523 30.3984C32.1523 29.9167 32.2435 29.4609 32.4258 29.0312C32.6211 28.5885 32.875 28.2109 33.1875 27.8984C33.513 27.5729 33.8906 27.319 34.3203 27.1367C34.763 26.9414 35.2318 26.8438 35.7266 26.8438C36.2214 26.8438 36.6836 26.9414 37.1133 27.1367C37.556 27.319 37.9401 27.5729 38.2656 27.8984C38.5911 28.2109 38.8451 28.5885 39.0273 29.0312C39.2227 29.4609 39.3203 29.9167 39.3203 30.3984ZM38.4023 57H33.0312V36.082H38.4023V57Z" fill="#FFF447"/>
<path d="M70.4922 43.1133C70.4922 44.4414 70.3164 45.724 69.9648 46.9609C69.6263 48.1849 69.1445 49.3372 68.5195 50.418C67.8945 51.4857 67.1393 52.4622 66.2539 53.3477C65.3685 54.2331 64.3919 54.9948 63.3242 55.6328C62.2565 56.2578 61.1042 56.7396 59.8672 57.0781C58.6302 57.4297 57.3477 57.6055 56.0195 57.6055C54.6914 57.6055 53.4089 57.4297 52.1719 57.0781C50.9479 56.7396 49.7956 56.2578 48.7148 55.6328C47.6471 54.9948 46.6706 54.2331 45.7852 53.3477C44.8997 52.4622 44.138 51.4857 43.5 50.418C42.875 49.3372 42.3867 48.1849 42.0352 46.9609C41.6966 45.724 41.5273 44.4414 41.5273 43.1133C41.5273 41.7852 41.6966 40.5026 42.0352 39.2656C42.3867 38.0286 42.875 36.8763 43.5 35.8086C44.138 34.7409 44.8997 33.7643 45.7852 32.8789C46.6706 31.9935 47.6471 31.2383 48.7148 30.6133C49.7956 29.9883 50.9479 29.5065 52.1719 29.168C53.4089 28.8164 54.6914 28.6406 56.0195 28.6406C57.3477 28.6406 58.6302 28.8164 59.8672 29.168C61.1042 29.5065 62.2565 29.9883 63.3242 30.6133C64.3919 31.2383 65.3685 31.9935 66.2539 32.8789C67.1393 33.7643 67.8945 34.7409 68.5195 35.8086C69.1445 36.8763 69.6263 38.0286 69.9648 39.2656C70.3164 40.5026 70.4922 41.7852 70.4922 43.1133ZM64.9258 43.1133C64.9258 41.8893 64.6914 40.737 64.2227 39.6562C63.7539 38.5625 63.1159 37.6185 62.3086 36.8242C61.5143 36.0169 60.5703 35.3789 59.4766 34.9102C58.3958 34.4414 57.2435 34.207 56.0195 34.207C54.7826 34.207 53.6237 34.4414 52.543 34.9102C51.4622 35.3789 50.5182 36.0169 49.7109 36.8242C48.9036 37.6185 48.2656 38.5625 47.7969 39.6562C47.3281 40.737 47.0938 41.8893 47.0938 43.1133C47.0938 44.3372 47.3281 45.4896 47.7969 46.5703C48.2656 47.638 48.9036 48.5755 49.7109 49.3828C50.5182 50.1901 51.4622 50.8281 52.543 51.2969C53.6237 51.7656 54.7826 52 56.0195 52C57.2435 52 58.3958 51.7656 59.4766 51.2969C60.5703 50.8281 61.5143 50.1901 62.3086 49.3828C63.1159 48.5755 63.7539 47.638 64.2227 46.5703C64.6914 45.4896 64.9258 44.3372 64.9258 43.1133Z" fill="#262525"/>
<path d="M37.9749 74.8624H35.5916V66.9738H32V65H41.5583V66.9738H37.9749V74.8624ZM44.7333 73.0605C44.8222 73.0834 44.9111 73.0995 45 73.1086C45.0888 73.1132 45.1777 73.1155 45.2666 73.1155C45.4889 73.1155 45.7027 73.0903 45.9083 73.0399C46.1139 72.9894 46.3056 72.9183 46.4833 72.8266C46.6666 72.7303 46.8278 72.6157 46.9666 72.4828C47.1111 72.3453 47.2277 72.1939 47.3166 72.0289L48.9833 73.4112C48.7722 73.6589 48.5278 73.8812 48.25 74.0784C47.9777 74.2755 47.6805 74.4429 47.3583 74.5804C47.0417 74.718 46.7056 74.8211 46.3499 74.8899C45.9999 74.9633 45.6389 75 45.2666 75C44.6388 75 44.0472 74.9037 43.4917 74.7111C42.9416 74.5185 42.4583 74.2503 42.0416 73.9064C41.6305 73.5625 41.3055 73.1545 41.0666 72.6822C40.8277 72.2054 40.7083 71.6827 40.7083 71.1141C40.7083 70.5318 40.8277 69.9999 41.0666 69.5186C41.3055 69.0371 41.6305 68.6267 42.0416 68.2874C42.4583 67.9482 42.9416 67.6845 43.4917 67.4966C44.0472 67.3086 44.6388 67.2145 45.2666 67.2145C45.6389 67.2145 46.0027 67.2513 46.3583 67.3246C46.7139 67.398 47.0499 67.5034 47.3666 67.641C47.6889 67.7785 47.9889 67.9482 48.2667 68.1499C48.5445 68.3471 48.7889 68.5694 49 68.817L44.7333 73.0605ZM45.8999 69.1884C45.7943 69.1563 45.6888 69.1357 45.5832 69.1266C45.4833 69.1173 45.3778 69.1128 45.2666 69.1128C44.9555 69.1128 44.6611 69.1609 44.3833 69.2572C44.1111 69.3489 43.8722 69.4818 43.6667 69.6561C43.4666 69.8303 43.3083 70.0412 43.1917 70.2888C43.075 70.5318 43.0167 70.8069 43.0167 71.1141C43.0167 71.1829 43.0194 71.2608 43.025 71.3479C43.0361 71.4351 43.0499 71.5245 43.0666 71.6162C43.0889 71.7033 43.1138 71.7881 43.1417 71.8707C43.1694 71.9531 43.2055 72.0265 43.25 72.0907L45.8999 69.1884Z" fill="#262525"/>
<path d="M58.1549 69.2122L56.7167 70.5372C56.6448 70.3527 56.5465 70.1879 56.4219 70.0428C56.2972 69.8934 56.1558 69.7681 55.9977 69.6671C55.8442 69.566 55.6764 69.4891 55.4942 69.4363C55.3121 69.3837 55.1252 69.3573 54.9334 69.3573C54.6649 69.3573 54.4108 69.4078 54.1712 69.5089C53.9363 69.6099 53.7301 69.7527 53.5528 69.9374C53.3802 70.1176 53.2436 70.3328 53.1428 70.5833C53.0422 70.8338 52.9918 71.1107 52.9918 71.4139C52.9918 71.66 53.0422 71.8908 53.1428 72.1061C53.2436 72.3214 53.3802 72.5104 53.5528 72.673C53.7301 72.8356 53.9363 72.963 54.1712 73.0553C54.4108 73.1477 54.6649 73.1938 54.9334 73.1938C55.1252 73.1938 55.3097 73.1696 55.4871 73.1213C55.6645 73.0729 55.8299 73.0048 55.9833 72.9169C56.1414 72.8246 56.2804 72.7147 56.4003 72.5873C56.525 72.4555 56.6256 72.3104 56.7023 72.1523L58.1405 73.4772C57.9583 73.7146 57.7474 73.9277 57.5077 74.1167C57.2728 74.3056 57.0163 74.466 56.7383 74.5978C56.4651 74.7297 56.1749 74.8285 55.8682 74.8945C55.5662 74.9648 55.2545 75 54.9334 75C54.3917 75 53.8811 74.9077 53.4018 74.7231C52.9272 74.5341 52.51 74.277 52.1506 73.9519C51.7958 73.6266 51.5154 73.2465 51.3093 72.8114C51.1031 72.3764 51 71.9105 51 71.4139C51 70.8734 51.1031 70.368 51.3093 69.8978C51.5154 69.4276 51.7958 69.0188 52.1506 68.6717C52.51 68.3202 52.9272 68.0433 53.4018 67.8411C53.8811 67.6389 54.3917 67.5379 54.9334 67.5379C55.2545 67.5379 55.5685 67.5752 55.8754 67.6499C56.187 67.7247 56.4818 67.8346 56.7598 67.9795C57.0427 68.1201 57.3015 68.2938 57.5365 68.5003C57.7761 68.7069 57.9822 68.9442 58.1549 69.2122ZM61.0815 74.8681H59.1184V65H61.0815V68.118C61.3164 67.9553 61.5584 67.8411 61.8078 67.7751C62.057 67.7048 62.3111 67.6697 62.5699 67.6697C63.0446 67.6697 63.4904 67.7532 63.9075 67.9202C64.3244 68.0828 64.6864 68.3091 64.9933 68.5992C65.3048 68.8848 65.5494 69.221 65.7267 69.6078C65.9088 69.99 66 70.3988 66 70.8338V74.8681H64.0224V70.8338H64.0368C64.0368 70.6493 63.9985 70.4756 63.9218 70.3131C63.8452 70.1461 63.7397 70.001 63.6055 69.878C63.4712 69.7549 63.3154 69.6582 63.138 69.5879C62.9606 69.5176 62.7714 69.4825 62.5699 69.4825C62.3639 69.4825 62.1697 69.5176 61.9876 69.5879C61.8054 69.6582 61.6471 69.7549 61.5129 69.878C61.3787 70.001 61.2732 70.1461 61.1965 70.3131C61.1198 70.4756 61.0815 70.6493 61.0815 70.8338V74.8681Z" fill="#FFF447"/>
</svg>
