<svg width="90" height="90" viewBox="0 0 90 90" fill="none" xmlns="http://www.w3.org/2000/svg">
<circle cx="45" cy="45" r="43" fill="#FCFCFC" stroke="#262525" stroke-width="4"/>
<path d="M29.52 33.17H34.98V52H29.52V33.17ZM32.25 30.545C31.2467 30.545 30.43 30.2533 29.8 29.67C29.17 29.0867 28.855 28.3633 28.855 27.5C28.855 26.6367 29.17 25.9133 29.8 25.33C30.43 24.7467 31.2467 24.455 32.25 24.455C33.2533 24.455 34.07 24.735 34.7 25.295C35.33 25.855 35.645 26.555 35.645 27.395C35.645 28.305 35.33 29.0633 34.7 29.67C34.07 30.2533 33.2533 30.545 32.25 30.545Z" fill="#FFF447"/>
<path d="M52.2973 52.42C49.754 52.42 47.4557 51.8717 45.4023 50.775C43.3723 49.6783 41.774 48.1733 40.6073 46.26C39.464 44.3233 38.8923 42.1533 38.8923 39.75C38.8923 37.3467 39.464 35.1883 40.6073 33.275C41.774 31.3383 43.3723 29.8217 45.4023 28.725C47.4557 27.6283 49.754 27.08 52.2973 27.08C54.8407 27.08 57.1273 27.6283 59.1573 28.725C61.1873 29.8217 62.7857 31.3383 63.9523 33.275C65.119 35.1883 65.7023 37.3467 65.7023 39.75C65.7023 42.1533 65.119 44.3233 63.9523 46.26C62.7857 48.1733 61.1873 49.6783 59.1573 50.775C57.1273 51.8717 54.8407 52.42 52.2973 52.42ZM52.2973 47.59C53.744 47.59 55.0507 47.2633 56.2173 46.61C57.384 45.9333 58.294 45 58.9473 43.81C59.624 42.62 59.9623 41.2667 59.9623 39.75C59.9623 38.2333 59.624 36.88 58.9473 35.69C58.294 34.5 57.384 33.5783 56.2173 32.925C55.0507 32.2483 53.744 31.91 52.2973 31.91C50.8507 31.91 49.544 32.2483 48.3773 32.925C47.2107 33.5783 46.289 34.5 45.6123 35.69C44.959 36.88 44.6323 38.2333 44.6323 39.75C44.6323 41.2667 44.959 42.62 45.6123 43.81C46.289 45 47.2107 45.9333 48.3773 46.61C49.544 47.2633 50.8507 47.59 52.2973 47.59Z" fill="#262525"/>
<path d="M32.0821 64.2H35.7871C36.7491 64.2 37.5984 64.395 38.3351 64.785C39.0718 65.1663 39.6438 65.7037 40.0511 66.397C40.4584 67.0817 40.6621 67.866 40.6621 68.75C40.6621 69.634 40.4584 70.4227 40.0511 71.116C39.6438 71.8007 39.0718 72.338 38.3351 72.728C37.5984 73.1093 36.7491 73.3 35.7871 73.3H32.0821V64.2ZM35.7351 72.468C36.5324 72.468 37.2301 72.312 37.8281 72C38.4261 71.6793 38.8898 71.2417 39.2191 70.687C39.5484 70.1237 39.7131 69.478 39.7131 68.75C39.7131 68.022 39.5484 67.3807 39.2191 66.826C38.8898 66.2627 38.4261 65.825 37.8281 65.513C37.2301 65.1923 36.5324 65.032 35.7351 65.032H33.0441V72.468H35.7351ZM48.5813 70.167H42.8613C42.9133 70.8777 43.1863 71.454 43.6803 71.896C44.1743 72.3293 44.7983 72.546 45.5523 72.546C45.977 72.546 46.367 72.4723 46.7223 72.325C47.0777 72.169 47.3853 71.9437 47.6453 71.649L48.1653 72.247C47.862 72.611 47.4807 72.8883 47.0213 73.079C46.5707 73.2697 46.0723 73.365 45.5263 73.365C44.8243 73.365 44.2003 73.2177 43.6543 72.923C43.117 72.6197 42.6967 72.2037 42.3933 71.675C42.09 71.1463 41.9383 70.5483 41.9383 69.881C41.9383 69.2137 42.0813 68.6157 42.3673 68.087C42.662 67.5583 43.0607 67.1467 43.5633 66.852C44.0747 66.5573 44.6467 66.41 45.2793 66.41C45.912 66.41 46.4797 66.5573 46.9823 66.852C47.485 67.1467 47.8793 67.5583 48.1653 68.087C48.4513 68.607 48.5943 69.205 48.5943 69.881L48.5813 70.167ZM45.2793 67.203C44.6207 67.203 44.066 67.4153 43.6153 67.84C43.1733 68.256 42.922 68.802 42.8613 69.478H47.7103C47.6497 68.802 47.394 68.256 46.9433 67.84C46.5013 67.4153 45.9467 67.203 45.2793 67.203ZM56.0921 66.462L53.0501 73.3H52.1011L49.0721 66.462H50.0341L52.5951 72.286L55.1821 66.462H56.0921Z" fill="#262525"/>
</svg>
