<svg width="100" height="100" viewBox="0 0 100 100" fill="none" xmlns="http://www.w3.org/2000/svg">
<path d="M50 95C74.8528 95 95 74.8528 95 50C95 25.1472 74.8528 5 50 5C25.1472 5 5 25.1472 5 50C5 74.8528 25.1472 95 50 95Z" fill="#262525" stroke="#FCFCFC" stroke-width="10" stroke-linecap="square" stroke-linejoin="round" stroke-dasharray="20 40 60 80"/>
<path d="M39.3203 30.3984C39.3203 30.8932 39.2227 31.3555 39.0273 31.7852C38.8451 32.2148 38.5911 32.5924 38.2656 32.918C37.9401 33.2305 37.556 33.4844 37.1133 33.6797C36.6836 33.862 36.2214 33.9531 35.7266 33.9531C35.2318 33.9531 34.763 33.862 34.3203 33.6797C33.8906 33.4844 33.513 33.2305 33.1875 32.918C32.875 32.5924 32.6211 32.2148 32.4258 31.7852C32.2435 31.3555 32.1523 30.8932 32.1523 30.3984C32.1523 29.9167 32.2435 29.4609 32.4258 29.0312C32.6211 28.5885 32.875 28.2109 33.1875 27.8984C33.513 27.5729 33.8906 27.319 34.3203 27.1367C34.763 26.9414 35.2318 26.8438 35.7266 26.8438C36.2214 26.8438 36.6836 26.9414 37.1133 27.1367C37.556 27.319 37.9401 27.5729 38.2656 27.8984C38.5911 28.2109 38.8451 28.5885 39.0273 29.0312C39.2227 29.4609 39.3203 29.9167 39.3203 30.3984ZM38.4023 57H33.0312V36.082H38.4023V57Z" fill="#FFF447"/>
<path d="M70.4922 43.1133C70.4922 44.4414 70.3164 45.724 69.9648 46.9609C69.6263 48.1849 69.1445 49.3372 68.5195 50.418C67.8945 51.4857 67.1393 52.4622 66.2539 53.3477C65.3685 54.2331 64.3919 54.9948 63.3242 55.6328C62.2565 56.2578 61.1042 56.7396 59.8672 57.0781C58.6302 57.4297 57.3477 57.6055 56.0195 57.6055C54.6914 57.6055 53.4089 57.4297 52.1719 57.0781C50.9479 56.7396 49.7956 56.2578 48.7148 55.6328C47.6471 54.9948 46.6706 54.2331 45.7852 53.3477C44.8997 52.4622 44.138 51.4857 43.5 50.418C42.875 49.3372 42.3867 48.1849 42.0352 46.9609C41.6966 45.724 41.5273 44.4414 41.5273 43.1133C41.5273 41.7852 41.6966 40.5026 42.0352 39.2656C42.3867 38.0286 42.875 36.8763 43.5 35.8086C44.138 34.7409 44.8997 33.7643 45.7852 32.8789C46.6706 31.9935 47.6471 31.2383 48.7148 30.6133C49.7956 29.9883 50.9479 29.5065 52.1719 29.168C53.4089 28.8164 54.6914 28.6406 56.0195 28.6406C57.3477 28.6406 58.6302 28.8164 59.8672 29.168C61.1042 29.5065 62.2565 29.9883 63.3242 30.6133C64.3919 31.2383 65.3685 31.9935 66.2539 32.8789C67.1393 33.7643 67.8945 34.7409 68.5195 35.8086C69.1445 36.8763 69.6263 38.0286 69.9648 39.2656C70.3164 40.5026 70.4922 41.7852 70.4922 43.1133ZM64.9258 43.1133C64.9258 41.8893 64.6914 40.737 64.2227 39.6562C63.7539 38.5625 63.1159 37.6185 62.3086 36.8242C61.5143 36.0169 60.5703 35.3789 59.4766 34.9102C58.3958 34.4414 57.2435 34.207 56.0195 34.207C54.7826 34.207 53.6237 34.4414 52.543 34.9102C51.4622 35.3789 50.5182 36.0169 49.7109 36.8242C48.9036 37.6185 48.2656 38.5625 47.7969 39.6562C47.3281 40.737 47.0938 41.8893 47.0938 43.1133C47.0938 44.3372 47.3281 45.4896 47.7969 46.5703C48.2656 47.638 48.9036 48.5755 49.7109 49.3828C50.5182 50.1901 51.4622 50.8281 52.543 51.2969C53.6237 51.7656 54.7826 52 56.0195 52C57.2435 52 58.3958 51.7656 59.4766 51.2969C60.5703 50.8281 61.5143 50.1901 62.3086 49.3828C63.1159 48.5755 63.7539 47.638 64.2227 46.5703C64.6914 45.4896 64.9258 44.3372 64.9258 43.1133Z" fill="#FCFCFC"/>
<path d="M39.6235 78.8486H37.3804V70.1712H34V68H42.996V70.1712H39.6235V78.8486ZM45.9843 76.8665C46.068 76.8918 46.1516 76.9094 46.2353 76.9194C46.3189 76.9245 46.4026 76.9271 46.4862 76.9271C46.6954 76.9271 46.8967 76.8993 47.0902 76.8439C47.2837 76.7883 47.4641 76.7101 47.6314 76.6093C47.8038 76.5034 47.9556 76.3773 48.0862 76.231C48.2222 76.0798 48.3319 75.9133 48.4156 75.7318L49.9843 77.2523C49.7856 77.5248 49.5556 77.7693 49.2941 77.9862C49.0378 78.203 48.7581 78.3872 48.4549 78.5384C48.1569 78.6898 47.8405 78.8032 47.5058 78.8789C47.1764 78.9596 46.8366 79 46.4862 79C45.8953 79 45.3386 78.894 44.8157 78.6823C44.298 78.4703 43.8431 78.1754 43.451 77.7971C43.064 77.4188 42.7582 76.97 42.5333 76.4504C42.3084 75.9259 42.1961 75.351 42.1961 74.7255C42.1961 74.085 42.3084 73.4999 42.5333 72.9704C42.7582 72.4408 43.064 71.9894 43.451 71.6161C43.8431 71.243 44.298 70.953 44.8157 70.7462C45.3386 70.5394 45.8953 70.436 46.4862 70.436C46.8366 70.436 47.179 70.4764 47.5137 70.5571C47.8483 70.6378 48.1646 70.7537 48.4627 70.9051C48.766 71.0563 49.0483 71.243 49.3098 71.4649C49.5713 71.6818 49.8013 71.9264 50 72.1987L45.9843 76.8665ZM47.0823 72.6073C46.9829 72.572 46.8836 72.5492 46.7842 72.5392C46.6902 72.5291 46.5909 72.5241 46.4862 72.5241C46.1934 72.5241 45.9164 72.577 45.6549 72.6829C45.3986 72.7838 45.1739 72.93 44.9804 73.1217C44.7921 73.3133 44.6431 73.5454 44.5333 73.8177C44.4235 74.085 44.3686 74.3876 44.3686 74.7255C44.3686 74.8012 44.3712 74.8869 44.3764 74.9827C44.3869 75.0786 44.3999 75.177 44.4156 75.2778C44.4366 75.3736 44.4601 75.4669 44.4863 75.5578C44.5123 75.6485 44.5463 75.7291 44.5882 75.7998L47.0823 72.6073Z" fill="#FCFCFC"/>
<path d="M58.5354 72.1046L57.0158 73.61C56.9476 73.3929 56.8516 73.1981 56.7279 73.0256C56.6043 72.8481 56.4628 72.6982 56.3033 72.5761C56.1486 72.4542 55.9785 72.3599 55.7928 72.2935C55.6071 72.2271 55.4158 72.1913 55.2186 72.1861C54.9425 72.1788 54.6797 72.2307 54.4302 72.3421C54.1855 72.4535 53.9691 72.6143 53.7812 72.8247C53.5981 73.0301 53.451 73.2773 53.3397 73.5665C53.2286 73.8558 53.1682 74.1771 53.1588 74.5306C53.1512 74.8175 53.196 75.0878 53.2928 75.3415C53.3897 75.5953 53.5243 75.8193 53.6968 76.0135C53.8741 76.2079 54.0821 76.362 54.3209 76.476C54.5644 76.5901 54.8242 76.6508 55.1003 76.6581C55.2974 76.6633 55.4879 76.6401 55.6718 76.5887C55.8557 76.5371 56.0279 76.4622 56.1883 76.3639C56.3538 76.2606 56.5001 76.1363 56.6272 75.9911C56.7595 75.8408 56.8674 75.6745 56.9512 75.4922L58.3891 77.0757C58.1945 77.3475 57.971 77.5901 57.7187 77.8039C57.4713 78.0177 57.2027 78.1978 56.9128 78.3438C56.6278 78.4901 56.3264 78.5975 56.009 78.666C55.6963 78.7397 55.3748 78.7723 55.0446 78.7636C54.4876 78.7488 53.9654 78.6273 53.4783 78.3992C52.9961 78.1659 52.5752 77.8549 52.2156 77.4661C51.8608 77.0773 51.5843 76.6266 51.3857 76.1138C51.1871 75.6011 51.0955 75.0553 51.1108 74.4764C51.1275 73.8463 51.2491 73.2601 51.4755 72.7176C51.702 72.1751 52.0029 71.7062 52.3784 71.3112C52.7589 70.9112 53.1963 70.5998 53.6905 70.3771C54.1896 70.1544 54.7177 70.0505 55.2747 70.0653C55.6049 70.074 55.9266 70.1261 56.2398 70.2215C56.5578 70.3171 56.8576 70.4532 57.139 70.6298C57.4255 70.8014 57.6863 71.0108 57.9215 71.258C58.1615 71.5053 58.3662 71.7875 58.5354 72.1046ZM61.3702 78.7771L59.3516 78.7237L59.6559 67.2208L61.6745 67.2742L61.5784 70.9087C61.8248 70.7255 62.0773 70.5989 62.3357 70.5289C62.5941 70.4537 62.8564 70.4197 63.1226 70.4267C63.6106 70.4396 64.0664 70.5491 64.4901 70.7551C64.9138 70.9559 65.279 71.2296 65.5856 71.576C65.8971 71.9174 66.1382 72.316 66.3086 72.7717C66.4841 73.2222 66.5652 73.7011 66.5518 74.2082L66.4274 78.9108L64.3941 78.857L64.5185 74.1544L64.5333 74.1548C64.539 73.9397 64.5049 73.7363 64.4311 73.5447C64.3574 73.348 64.2534 73.176 64.1192 73.0289C63.985 72.8818 63.8278 72.7649 63.6476 72.6781C63.4673 72.5913 63.2738 72.5453 63.0667 72.5398C62.8548 72.5342 62.6541 72.5698 62.4646 72.6468C62.2751 72.7238 62.1094 72.8322 61.9676 72.972C61.8258 73.1118 61.7129 73.278 61.6289 73.4706C61.545 73.658 61.5003 73.8593 61.4946 74.0744L61.3702 78.7771Z" fill="#FFF447"/>
</svg>
