<svg width="50" height="50" viewBox="0 0 50 50" fill="none" xmlns="http://www.w3.org/2000/svg">
<path d="M25.2412 16.6718C20.7001 16.6718 16.9943 20.4075 16.9943 24.9851C16.9943 29.5628 20.7001 33.2985 25.2412 33.2985C29.7822 33.2985 33.4881 29.5628 33.4881 24.9851C33.4881 20.4075 29.7822 16.6718 25.2412 16.6718ZM49.9785 24.9851C49.9785 21.495 49.9785 18.0048 49.9785 14.6574C49.9785 10.496 50.4008 4.96876 47.5054 2.05004C44.6038 -0.874916 39.415 0.250834 35.4555 0.0574998C32.1724 0.0556287 28.7101 0.0556195 25.2474 0.0575382C21.8323 0.0575382 18.3233 0.0575382 15.0393 0.0574766C11.0798 0.250811 5.39105 -0.868679 2.49567 2.05004C-0.405905 4.97499 0.0222189 10.0274 0.0223514 14.5147C0.0225529 17.8621 0.0223514 21.5488 0.0223514 24.9851C0.0223514 28.4215 0.0218685 31.9653 0.0223514 35.4555C0.022895 39.3847 -0.399718 44.5029 2.49567 47.4216C5.39724 50.3466 10.9015 49.7212 14.861 49.9145C18.276 50.1079 21.8385 49.9127 25.2474 49.9127C28.6624 49.9127 32.2258 50.1061 35.6347 49.9127C39.6233 49.9127 44.61 50.3404 47.5054 47.4216C50.407 44.4967 49.7867 39.4469 49.9785 35.4555C49.9784 31.9653 49.9785 27.9812 49.9785 24.9851ZM25.2412 37.7764C18.2193 37.7764 12.5522 32.0637 12.5522 24.9851C12.5522 17.9066 18.2193 12.1939 25.2412 12.1939C32.2631 12.1939 37.9302 17.9066 37.9302 24.9851C37.9302 32.0637 32.2631 37.7764 25.2412 37.7764ZM38.4498 14.6574C36.8104 14.6574 35.4864 13.3227 35.4864 11.67C35.4864 10.0174 36.8104 8.68273 38.4498 8.68273C40.0893 8.68273 41.4133 10.0174 41.4133 11.67C41.4138 12.0625 41.3375 12.4512 41.1887 12.8138C41.0399 13.1765 40.8217 13.506 40.5464 13.7835C40.2711 14.061 39.9442 14.281 39.5845 14.431C39.2247 14.5809 38.8391 14.6579 38.4498 14.6574Z" fill="white"/>
</svg>
