<svg width="77" height="58" viewBox="0 0 77 58" fill="none" xmlns="http://www.w3.org/2000/svg">
<path d="M2.184 18.264H13.416V57H2.184V18.264ZM7.8 12.864C5.736 12.864 4.056 12.264 2.76 11.064C1.464 9.864 0.816 8.376 0.816 6.6C0.816 4.824 1.464 3.336 2.76 2.136C4.056 0.935997 5.736 0.335996 7.8 0.335996C9.864 0.335996 11.544 0.911997 12.84 2.064C14.136 3.216 14.784 4.656 14.784 6.384C14.784 8.256 14.136 9.816 12.84 11.064C11.544 12.264 9.864 12.864 7.8 12.864Z" fill="#FFF447"/>
<path d="M49.0403 57.864C43.8083 57.864 39.0803 56.736 34.8563 54.48C30.6803 52.224 27.3923 49.128 24.9923 45.192C22.6403 41.208 21.4643 36.744 21.4643 31.8C21.4643 26.856 22.6403 22.416 24.9923 18.48C27.3923 14.496 30.6803 11.376 34.8563 9.12C39.0803 6.864 43.8083 5.736 49.0403 5.736C54.2723 5.736 58.9763 6.864 63.1523 9.12C67.3283 11.376 70.6163 14.496 73.0163 18.48C75.4163 22.416 76.6163 26.856 76.6163 31.8C76.6163 36.744 75.4163 41.208 73.0163 45.192C70.6163 49.128 67.3283 52.224 63.1523 54.48C58.9763 56.736 54.2723 57.864 49.0403 57.864ZM49.0403 47.928C52.0163 47.928 54.7043 47.256 57.1043 45.912C59.5043 44.52 61.3763 42.6 62.7203 40.152C64.1123 37.704 64.8083 34.92 64.8083 31.8C64.8083 28.68 64.1123 25.896 62.7203 23.448C61.3763 21 59.5043 19.104 57.1043 17.76C54.7043 16.368 52.0163 15.672 49.0403 15.672C46.0643 15.672 43.3763 16.368 40.9763 17.76C38.5763 19.104 36.6803 21 35.2883 23.448C33.9443 25.896 33.2723 28.68 33.2723 31.8C33.2723 34.92 33.9443 37.704 35.2883 40.152C36.6803 42.6 38.5763 44.52 40.9763 45.912C43.3763 47.256 46.0643 47.928 49.0403 47.928Z" fill="#FCFCFC"/>
</svg>
