<svg width="100" height="100" viewBox="0 0 100 100" fill="none" xmlns="http://www.w3.org/2000/svg">
<circle cx="50" cy="50" r="45" fill="#262525" stroke="#8C8CA7" stroke-width="10" stroke-linecap="square" stroke-linejoin="round" stroke-dasharray="20 40 60 80"/>
<path d="M39.3203 30.3984C39.3203 30.8932 39.2227 31.3555 39.0273 31.7852C38.8451 32.2148 38.5911 32.5924 38.2656 32.918C37.9401 33.2305 37.556 33.4844 37.1133 33.6797C36.6836 33.862 36.2214 33.9531 35.7266 33.9531C35.2318 33.9531 34.763 33.862 34.3203 33.6797C33.8906 33.4844 33.513 33.2305 33.1875 32.918C32.875 32.5924 32.6211 32.2148 32.4258 31.7852C32.2435 31.3555 32.1523 30.8932 32.1523 30.3984C32.1523 29.9167 32.2435 29.4609 32.4258 29.0312C32.6211 28.5885 32.875 28.2109 33.1875 27.8984C33.513 27.5729 33.8906 27.319 34.3203 27.1367C34.763 26.9414 35.2318 26.8438 35.7266 26.8438C36.2214 26.8438 36.6836 26.9414 37.1133 27.1367C37.556 27.319 37.9401 27.5729 38.2656 27.8984C38.5911 28.2109 38.8451 28.5885 39.0273 29.0312C39.2227 29.4609 39.3203 29.9167 39.3203 30.3984ZM38.4023 57H33.0312V36.082H38.4023V57Z" fill="#FFF447"/>
<path d="M70.4922 43.1133C70.4922 44.4414 70.3164 45.724 69.9648 46.9609C69.6263 48.1849 69.1445 49.3372 68.5195 50.418C67.8945 51.4857 67.1393 52.4622 66.2539 53.3477C65.3685 54.2331 64.3919 54.9948 63.3242 55.6328C62.2565 56.2578 61.1042 56.7396 59.8672 57.0781C58.6302 57.4297 57.3477 57.6055 56.0195 57.6055C54.6914 57.6055 53.4089 57.4297 52.1719 57.0781C50.9479 56.7396 49.7956 56.2578 48.7148 55.6328C47.6471 54.9948 46.6706 54.2331 45.7852 53.3477C44.8997 52.4622 44.138 51.4857 43.5 50.418C42.875 49.3372 42.3867 48.1849 42.0352 46.9609C41.6966 45.724 41.5273 44.4414 41.5273 43.1133C41.5273 41.7852 41.6966 40.5026 42.0352 39.2656C42.3867 38.0286 42.875 36.8763 43.5 35.8086C44.138 34.7409 44.8997 33.7643 45.7852 32.8789C46.6706 31.9935 47.6471 31.2383 48.7148 30.6133C49.7956 29.9883 50.9479 29.5065 52.1719 29.168C53.4089 28.8164 54.6914 28.6406 56.0195 28.6406C57.3477 28.6406 58.6302 28.8164 59.8672 29.168C61.1042 29.5065 62.2565 29.9883 63.3242 30.6133C64.3919 31.2383 65.3685 31.9935 66.2539 32.8789C67.1393 33.7643 67.8945 34.7409 68.5195 35.8086C69.1445 36.8763 69.6263 38.0286 69.9648 39.2656C70.3164 40.5026 70.4922 41.7852 70.4922 43.1133ZM64.9258 43.1133C64.9258 41.8893 64.6914 40.737 64.2227 39.6562C63.7539 38.5625 63.1159 37.6185 62.3086 36.8242C61.5143 36.0169 60.5703 35.3789 59.4766 34.9102C58.3958 34.4414 57.2435 34.207 56.0195 34.207C54.7826 34.207 53.6237 34.4414 52.543 34.9102C51.4622 35.3789 50.5182 36.0169 49.7109 36.8242C48.9036 37.6185 48.2656 38.5625 47.7969 39.6562C47.3281 40.737 47.0938 41.8893 47.0938 43.1133C47.0938 44.3372 47.3281 45.4896 47.7969 46.5703C48.2656 47.638 48.9036 48.5755 49.7109 49.3828C50.5182 50.1901 51.4622 50.8281 52.543 51.2969C53.6237 51.7656 54.7826 52 56.0195 52C57.2435 52 58.3958 51.7656 59.4766 51.2969C60.5703 50.8281 61.5143 50.1901 62.3086 49.3828C63.1159 48.5755 63.7539 47.638 64.2227 46.5703C64.6914 45.4896 64.9258 44.3372 64.9258 43.1133Z" fill="#FCFCFC"/>
<path d="M40.6655 75H38.8501V67.7192H36.1143V65.8975H43.395V67.7192H40.6655V75ZM45.8135 73.3369C45.8812 73.3581 45.9489 73.3729 46.0166 73.3813C46.0843 73.3856 46.152 73.3877 46.2197 73.3877C46.389 73.3877 46.5519 73.3644 46.7085 73.3179C46.8651 73.2713 47.0111 73.2057 47.1465 73.1211C47.2861 73.0322 47.4089 72.9264 47.5146 72.8037C47.6247 72.6768 47.7135 72.5371 47.7812 72.3848L49.0508 73.6606C48.89 73.8892 48.7038 74.0944 48.4922 74.2764C48.2848 74.4583 48.0584 74.6128 47.813 74.7397C47.5718 74.8667 47.3158 74.9619 47.0449 75.0254C46.7783 75.0931 46.5033 75.127 46.2197 75.127C45.7415 75.127 45.2909 75.0381 44.8677 74.8604C44.4487 74.6826 44.0806 74.4351 43.7632 74.1177C43.45 73.8003 43.2025 73.4237 43.0205 72.9878C42.8385 72.5477 42.7476 72.0653 42.7476 71.5405C42.7476 71.0031 42.8385 70.5122 43.0205 70.0679C43.2025 69.6235 43.45 69.2448 43.7632 68.9316C44.0806 68.6185 44.4487 68.3752 44.8677 68.2017C45.2909 68.0282 45.7415 67.9414 46.2197 67.9414C46.5033 67.9414 46.7804 67.9753 47.0513 68.043C47.3221 68.1107 47.5781 68.208 47.8193 68.335C48.0648 68.4619 48.2933 68.6185 48.5049 68.8047C48.7165 68.9867 48.9027 69.1919 49.0635 69.4204L45.8135 73.3369ZM46.7021 69.7632C46.6217 69.7336 46.5413 69.7145 46.4609 69.7061C46.3848 69.6976 46.3044 69.6934 46.2197 69.6934C45.9827 69.6934 45.7585 69.7378 45.5469 69.8267C45.3395 69.9113 45.1576 70.034 45.001 70.1948C44.8486 70.3556 44.728 70.5503 44.6392 70.7788C44.5503 71.0031 44.5059 71.257 44.5059 71.5405C44.5059 71.604 44.508 71.6759 44.5122 71.7563C44.5207 71.8368 44.5312 71.9193 44.5439 72.0039C44.5609 72.0843 44.5799 72.1626 44.6011 72.2388C44.6222 72.3149 44.6497 72.3826 44.6836 72.4419L46.7021 69.7632Z" fill="#FCFCFC"/>
<path d="M55.8809 69.5537L54.6113 70.8296C54.5479 70.6519 54.4611 70.4932 54.3511 70.3535C54.241 70.2096 54.1162 70.089 53.9766 69.9917C53.8411 69.8944 53.693 69.8203 53.5322 69.7695C53.3714 69.7188 53.2064 69.6934 53.0371 69.6934C52.8001 69.6934 52.5758 69.742 52.3643 69.8394C52.1569 69.9367 51.9749 70.0742 51.8184 70.252C51.666 70.4255 51.5454 70.6328 51.4565 70.874C51.3677 71.1152 51.3232 71.3818 51.3232 71.6738C51.3232 71.9108 51.3677 72.133 51.4565 72.3403C51.5454 72.5477 51.666 72.7297 51.8184 72.8862C51.9749 73.0428 52.1569 73.1655 52.3643 73.2544C52.5758 73.3433 52.8001 73.3877 53.0371 73.3877C53.2064 73.3877 53.3693 73.3644 53.5259 73.3179C53.6825 73.2713 53.8285 73.2057 53.9639 73.1211C54.1035 73.0322 54.2262 72.9264 54.332 72.8037C54.4421 72.6768 54.5309 72.5371 54.5986 72.3848L55.8682 73.6606C55.7074 73.8892 55.5212 74.0944 55.3096 74.2764C55.1022 74.4583 54.8758 74.6128 54.6304 74.7397C54.3892 74.8667 54.1331 74.9619 53.8623 75.0254C53.5957 75.0931 53.3206 75.127 53.0371 75.127C52.5589 75.127 52.1082 75.0381 51.6851 74.8604C51.2661 74.6784 50.8979 74.4308 50.5806 74.1177C50.2674 73.8045 50.0199 73.4385 49.8379 73.0195C49.6559 72.6006 49.5649 72.152 49.5649 71.6738C49.5649 71.1533 49.6559 70.6667 49.8379 70.2139C50.0199 69.7611 50.2674 69.3675 50.5806 69.0332C50.8979 68.6947 51.2661 68.4281 51.6851 68.2334C52.1082 68.0387 52.5589 67.9414 53.0371 67.9414C53.3206 67.9414 53.5978 67.9774 53.8687 68.0493C54.1437 68.1213 54.404 68.2271 54.6494 68.3667C54.8991 68.5021 55.1276 68.6693 55.335 68.8682C55.5465 69.0671 55.7285 69.2956 55.8809 69.5537ZM58.4644 75H56.7314V65.4976H58.4644V68.5C58.6717 68.3434 58.8854 68.2334 59.1055 68.1699C59.3255 68.1022 59.5498 68.0684 59.7783 68.0684C60.1973 68.0684 60.5908 68.1488 60.959 68.3096C61.3271 68.4661 61.6466 68.6841 61.9175 68.9634C62.1925 69.2384 62.4084 69.5622 62.5649 69.9346C62.7257 70.3027 62.8062 70.6963 62.8062 71.1152V75H61.0605V71.1152H61.0732C61.0732 70.9375 61.0394 70.7703 60.9717 70.6138C60.904 70.453 60.8109 70.3133 60.6924 70.1948C60.5739 70.0763 60.4364 69.9832 60.2798 69.9155C60.1232 69.8478 59.9561 69.814 59.7783 69.814C59.5964 69.814 59.425 69.8478 59.2642 69.9155C59.1034 69.9832 58.9637 70.0763 58.8452 70.1948C58.7267 70.3133 58.6336 70.453 58.5659 70.6138C58.4982 70.7703 58.4644 70.9375 58.4644 71.1152V75Z" fill="#FFF447"/>
</svg>
