<svg width="50" height="50" viewBox="0 0 50 50" fill="none" xmlns="http://www.w3.org/2000/svg">
<path d="M44.4444 0H5.55556C2.48731 0 0 2.48731 0 5.55556V44.4444C0 47.5127 2.48731 50 5.55556 50H44.4444C47.5127 50 50 47.5127 50 44.4444V5.55556C50 2.48731 47.5127 0 44.4444 0ZM15.2778 40.2778C15.2778 41.0448 14.656 41.6667 13.8889 41.6667H9.72222C8.95516 41.6667 8.33333 41.0448 8.33333 40.2778V20.8333C8.33333 20.0663 8.95516 19.4444 9.72222 19.4444H13.8889C14.656 19.4444 15.2778 20.0663 15.2778 20.8333V40.2778ZM11.8056 16.6667C9.50437 16.6667 7.63889 14.8012 7.63889 12.5C7.63889 10.1988 9.50437 8.33333 11.8056 8.33333C14.1067 8.33333 15.9722 10.1988 15.9722 12.5C15.9722 14.8012 14.1067 16.6667 11.8056 16.6667ZM41.6667 40.2778C41.6667 41.0448 41.0448 41.6667 40.2778 41.6667H36.1111C35.344 41.6667 34.7222 41.0448 34.7222 40.2778V29.8611C34.7222 27.5599 32.8567 25.6944 30.5556 25.6944C28.2544 25.6944 26.3889 27.5599 26.3889 29.8611V40.2778C26.3889 41.0448 25.7671 41.6667 25 41.6667H20.8333C20.0663 41.6667 19.4444 41.0448 19.4444 40.2778V20.8333C19.4444 20.0663 20.0663 19.4444 20.8333 19.4444H25C25.7671 19.4444 26.3889 20.0663 26.3889 20.8333V22.5C28.0785 19.9289 31.0473 18.4979 34.1111 18.7778C38.4934 19.3181 41.7568 23.0855 41.6667 27.5V40.2778Z" fill="#FCFCFC"/>
</svg>
