<svg width="100" height="100" viewBox="0 0 100 100" fill="none" xmlns="http://www.w3.org/2000/svg">
<circle cx="50" cy="50" r="48" fill="#0D0B0C" stroke="#F7F7F7" stroke-width="4"/>
<path d="M32.88 37.48H39.12V59H32.88V37.48ZM36 34.48C34.8533 34.48 33.92 34.1467 33.2 33.48C32.48 32.8133 32.12 31.9867 32.12 31C32.12 30.0133 32.48 29.1867 33.2 28.52C33.92 27.8533 34.8533 27.52 36 27.52C37.1467 27.52 38.08 27.84 38.8 28.48C39.52 29.12 39.88 29.92 39.88 30.88C39.88 31.92 39.52 32.7867 38.8 33.48C38.08 34.1467 37.1467 34.48 36 34.48Z" fill="#FFF447"/>
<path d="M58.9113 59.48C56.0046 59.48 53.3779 58.8533 51.0313 57.6C48.7113 56.3467 46.8846 54.6267 45.5513 52.44C44.2446 50.2267 43.5913 47.7467 43.5913 45C43.5913 42.2533 44.2446 39.7867 45.5513 37.6C46.8846 35.3867 48.7113 33.6533 51.0313 32.4C53.3779 31.1467 56.0046 30.52 58.9113 30.52C61.8179 30.52 64.4313 31.1467 66.7513 32.4C69.0713 33.6533 70.8979 35.3867 72.2313 37.6C73.5646 39.7867 74.2313 42.2533 74.2313 45C74.2313 47.7467 73.5646 50.2267 72.2313 52.44C70.8979 54.6267 69.0713 56.3467 66.7513 57.6C64.4313 58.8533 61.8179 59.48 58.9113 59.48ZM58.9113 53.96C60.5646 53.96 62.0579 53.5867 63.3913 52.84C64.7246 52.0667 65.7646 51 66.5113 49.64C67.2846 48.28 67.6713 46.7333 67.6713 45C67.6713 43.2667 67.2846 41.72 66.5113 40.36C65.7646 39 64.7246 37.9467 63.3913 37.2C62.0579 36.4267 60.5646 36.04 58.9113 36.04C57.2579 36.04 55.7646 36.4267 54.4313 37.2C53.0979 37.9467 52.0446 39 51.2713 40.36C50.5246 41.72 50.1513 43.2667 50.1513 45C50.1513 46.7333 50.5246 48.28 51.2713 49.64C52.0446 51 53.0979 52.0667 54.4313 52.84C55.7646 53.5867 57.2579 53.96 58.9113 53.96Z" fill="#FCFCFC"/>
<path d="M35.824 71.8H40.384C41.568 71.8 42.6133 72.04 43.52 72.52C44.4267 72.9893 45.1307 73.6507 45.632 74.504C46.1333 75.3467 46.384 76.312 46.384 77.4C46.384 78.488 46.1333 79.4587 45.632 80.312C45.1307 81.1547 44.4267 81.816 43.52 82.296C42.6133 82.7653 41.568 83 40.384 83H35.824V71.8ZM40.32 81.976C41.3013 81.976 42.16 81.784 42.896 81.4C43.632 81.0053 44.2027 80.4667 44.608 79.784C45.0133 79.0907 45.216 78.296 45.216 77.4C45.216 76.504 45.0133 75.7147 44.608 75.032C44.2027 74.3387 43.632 73.8 42.896 73.416C42.16 73.0213 41.3013 72.824 40.32 72.824H37.008V81.976H40.32ZM56.1308 79.144H49.0908C49.1548 80.0187 49.4908 80.728 50.0988 81.272C50.7068 81.8053 51.4748 82.072 52.4028 82.072C52.9254 82.072 53.4054 81.9813 53.8428 81.8C54.2801 81.608 54.6588 81.3307 54.9788 80.968L55.6188 81.704C55.2454 82.152 54.7761 82.4933 54.2108 82.728C53.6561 82.9627 53.0428 83.08 52.3708 83.08C51.5068 83.08 50.7388 82.8987 50.0668 82.536C49.4054 82.1627 48.8881 81.6507 48.5148 81C48.1414 80.3493 47.9548 79.6133 47.9548 78.792C47.9548 77.9707 48.1308 77.2347 48.4828 76.584C48.8454 75.9333 49.3361 75.4267 49.9548 75.064C50.5841 74.7013 51.2881 74.52 52.0668 74.52C52.8454 74.52 53.5441 74.7013 54.1628 75.064C54.7814 75.4267 55.2668 75.9333 55.6188 76.584C55.9708 77.224 56.1468 77.96 56.1468 78.792L56.1308 79.144ZM52.0668 75.496C51.2561 75.496 50.5734 75.7573 50.0188 76.28C49.4748 76.792 49.1654 77.464 49.0908 78.296H55.0588C54.9841 77.464 54.6694 76.792 54.1148 76.28C53.5708 75.7573 52.8881 75.496 52.0668 75.496ZM65.3748 74.584L61.6308 83H60.4628L56.7348 74.584H57.9188L61.0708 81.752L64.2548 74.584H65.3748Z" fill="#FCFCFC"/>
</svg>
